<?xml version="1.0" standalone="no"?><!DOCTYPE svg PUBLIC "-//W3C//DTD SVG 1.1//EN" "http://www.w3.org/Graphics/SVG/1.1/DTD/svg11.dtd"><svg t="1614581397203" class="icon" viewBox="0 0 1083 1024" version="1.1" xmlns="http://www.w3.org/2000/svg" p-id="2112" width="16.921875" height="16" xmlns:xlink="http://www.w3.org/1999/xlink"><defs><style type="text/css"></style></defs><path d="M513.671833 1024c-69.10382 0-136.166353-13.544078-199.301104-40.24526-60.967699-25.791794-115.72447-62.699406-162.732094-109.716704S67.70405 772.27364 41.912256 711.296267c-26.701182-63.134751-40.24526-130.197285-40.24526-199.301104s13.544078-136.166353 40.24526-199.301105c25.791794-60.967699 62.699406-115.72447 109.716704-162.732094S253.393356 66.037053 314.370729 40.24526c63.144425-26.701182 130.197285-40.24526 199.301104-40.24526s136.166353 13.544078 199.301105 40.24526C773.940637 66.037053 828.697408 102.944665 875.705032 149.961964s83.92491 101.764396 109.716705 162.732094c26.701182 63.144425 40.24526 130.197285 40.245259 199.301105s-13.544078 136.166353-40.245259 199.301104c-25.791794 60.967699-62.699406 115.72447-109.716705 162.732095S773.940637 957.962947 712.972938 983.75474c-63.144425 26.701182-130.197285 40.24526-199.301105 40.24526z m0-967.888821c-251.378083 0-455.883983 204.5059-455.883983 455.883984 0 251.378083 204.5059 455.883983 455.883983 455.883983C765.049917 967.888821 969.555817 763.373246 969.555817 511.995163c0-251.378083-204.5059-455.883983-455.883984-455.883984z" p-id="2113" fill="#ffffff"></path><path d="M746.533228 511.995163L397.231462 250.023676v523.952648z" p-id="2114" fill="#ffffff"></path></svg>