<?xml version="1.0" standalone="no"?><!DOCTYPE svg PUBLIC "-//W3C//DTD SVG 1.1//EN" "http://www.w3.org/Graphics/SVG/1.1/DTD/svg11.dtd"><svg t="1614608858336" class="icon" viewBox="0 0 1024 1024" version="1.1" xmlns="http://www.w3.org/2000/svg" p-id="7180" width="26" height="26" xmlns:xlink="http://www.w3.org/1999/xlink"><defs><style type="text/css"></style></defs><path d="M760.123077 401.723077c-19.692308-128-131.938462-226.461538-265.846154-226.461539-149.661538 0-269.784615 120.123077-269.784615 269.784616 0 5.907692 0 13.784615 1.96923 19.692308-98.461538 7.876923-175.261538 90.584615-175.261538 189.046153 0 106.338462 84.676923 191.015385 191.015385 191.015385h226.461538l-159.507692-159.507692c-7.876923-7.876923-7.876923-17.723077 0-25.6l25.6-25.6c7.876923-7.876923 17.723077-7.876923 25.6 0l68.923077 68.923077c7.876923 7.876923 21.661538 1.969231 21.661538-7.876923V429.292308c0-7.876923 9.846154-17.723077 19.692308-17.723077h37.415384c9.846154 0 17.723077 7.876923 17.723077 17.723077v263.876923c0 11.815385 15.753846 15.753846 21.661539 7.876923l68.923077-68.923077c7.876923-7.876923 17.723077-7.876923 25.6 0l25.6 25.6c7.876923 7.876923 7.876923 17.723077 0 25.6L512 844.8h242.215385c120.123077-1.969231 216.615385-100.430769 216.615384-222.523077 1.969231-120.123077-92.553846-216.615385-210.707692-220.553846z" p-id="7181" fill="#fb7299"></path></svg>